<svg width="38" height="39" viewBox="0 0 38 39" fill="none" xmlns="http://www.w3.org/2000/svg">
<rect y="0.962402" width="38" height="38" rx="12" fill="#2C2C2C"/>
<path d="M20.0211 15.3588C20.0211 15.8191 19.648 16.1922 19.1877 16.1922C18.7275 16.1922 18.3544 15.8191 18.3544 15.3588C18.3544 14.8986 18.7275 14.5255 19.1877 14.5255C19.648 14.5255 20.0211 14.8986 20.0211 15.3588ZM20.0474 12.0874C19.5352 11.7137 18.8402 11.7137 18.3281 12.0874L12.1432 16.6007C11.329 17.1949 11.7493 18.4838 12.7572 18.4838H12.9377V23.3171C12.1957 23.6964 11.6877 24.4683 11.6877 25.3588V26.6088C11.6877 26.954 11.9676 27.2338 12.3127 27.2338H26.0627C26.4079 27.2338 26.6877 26.954 26.6877 26.6088V25.3588C26.6877 24.4683 26.1797 23.6964 25.4377 23.3171V18.4838H25.6182C26.6262 18.4838 27.0465 17.1949 26.2322 16.6007L20.0474 12.0874ZM19.0649 13.0972C19.1381 13.0438 19.2374 13.0438 19.3106 13.0972L24.9793 17.2338H13.3962L19.0649 13.0972ZM24.1877 18.4838V23.0671H22.5211V18.4838H24.1877ZM21.2711 18.4838V23.0671H19.8127V18.4838H21.2711ZM18.5627 18.4838V23.0671H17.1044V18.4838H18.5627ZM13.9794 24.3171H24.3961C24.9714 24.3171 25.4377 24.7836 25.4377 25.3588V25.9838H12.9377V25.3588C12.9377 24.7836 13.4041 24.3171 13.9794 24.3171ZM14.1877 23.0671V18.4838H15.8544V23.0671H14.1877Z" fill="white"/>
</svg>
