<svg width="19" height="18" viewBox="0 0 19 18" fill="none" xmlns="http://www.w3.org/2000/svg">
<path d="M2.12526 8.99788C2.12507 7.79098 2.4426 6.60529 3.04593 5.56C3.64926 4.51472 4.51713 3.64668 5.56229 3.04315C6.60745 2.43962 7.79308 2.12185 8.99999 2.12181C10.2069 2.12176 11.3925 2.43943 12.4378 3.04288C12.5812 3.12445 12.7511 3.14597 12.9104 3.10272C13.0697 3.05948 13.2054 2.95499 13.2879 2.81207C13.3705 2.66914 13.3931 2.49937 13.3509 2.33981C13.3087 2.18025 13.2051 2.04385 13.0628 1.96038C11.5138 1.06611 9.71311 0.707908 7.93986 0.941331C6.16661 1.17475 4.51993 1.98676 3.2552 3.25141C1.99046 4.51606 1.17835 6.16269 0.944817 7.93592C0.71128 9.70916 1.06936 11.5099 1.96354 13.0589C2.85771 14.6079 4.238 15.8185 5.89035 16.5031C7.5427 17.1877 9.37476 17.3079 11.1024 16.8452C12.8301 16.3824 14.3567 15.3626 15.4457 13.9437C16.5347 12.5249 17.125 10.7864 17.1253 8.99788C17.1253 8.83212 17.0594 8.67315 16.9422 8.55594C16.825 8.43873 16.666 8.37288 16.5003 8.37288C16.3345 8.37288 16.1755 8.43873 16.0583 8.55594C15.9411 8.67315 15.8753 8.83212 15.8753 8.99788C15.8753 10.8212 15.1509 12.5699 13.8616 13.8592C12.5723 15.1486 10.8236 15.8729 9.00026 15.8729C7.17689 15.8729 5.42821 15.1486 4.1389 13.8592C2.84958 12.5699 2.12526 10.8212 2.12526 8.99788Z" fill="#C9F299"/>
<path d="M18.1928 3.19038C18.2509 3.13227 18.297 3.06328 18.3284 2.98736C18.3599 2.91144 18.376 2.83006 18.376 2.74788C18.376 2.6657 18.3599 2.58433 18.3284 2.5084C18.297 2.43248 18.2509 2.36349 18.1928 2.30538C18.1346 2.24727 18.0657 2.20118 17.9897 2.16973C17.9138 2.13828 17.8324 2.12209 17.7503 2.12209C17.6681 2.12209 17.5867 2.13828 17.5108 2.16973C17.4349 2.20118 17.3659 2.24727 17.3078 2.30538L9.00026 10.6141L5.69276 7.30538C5.63465 7.24727 5.56566 7.20118 5.48974 7.16973C5.41381 7.13828 5.33244 7.12209 5.25026 7.12209C5.16808 7.12209 5.0867 7.13828 5.01078 7.16973C4.93485 7.20118 4.86587 7.24727 4.80776 7.30538C4.74965 7.36349 4.70355 7.43248 4.6721 7.5084C4.64065 7.58433 4.62447 7.6657 4.62447 7.74788C4.62447 7.83006 4.64065 7.91144 4.6721 7.98736C4.70355 8.06329 4.74965 8.13227 4.80776 8.19038L8.55776 11.9404C8.61581 11.9986 8.68478 12.0448 8.76071 12.0763C8.83665 12.1078 8.91805 12.124 9.00026 12.124C9.08247 12.124 9.16387 12.1078 9.2398 12.0763C9.31573 12.0448 9.3847 11.9986 9.44276 11.9404L18.1928 3.19038Z" fill="#C9F299"/>
</svg>
