<svg width="38" height="39" viewBox="0 0 38 39" fill="none" xmlns="http://www.w3.org/2000/svg">
<rect y="0.924805" width="38" height="38" rx="12" fill="#2C2C2C"/>
<path d="M22.1044 20.9466C22.1044 20.6014 22.3842 20.3216 22.7294 20.3216H24.3961C24.7412 20.3216 25.0211 20.6014 25.0211 20.9466C25.0211 21.2918 24.7412 21.5716 24.3961 21.5716H22.7294C22.3842 21.5716 22.1044 21.2918 22.1044 20.9466ZM11.6877 13.6549H11.6992C11.8028 12.7175 12.5976 11.9883 13.5627 11.9883H23.1461C24.1816 11.9883 25.0211 12.8277 25.0211 13.8633V14.5608C26.2155 14.8429 27.1044 15.916 27.1044 17.1966V24.2799C27.1044 25.7757 25.8918 26.9883 24.3961 26.9883H14.3961C12.9003 26.9883 11.6877 25.7757 11.6877 24.2799V13.6549ZM24.3961 15.7383H12.9377V24.2799C12.9377 25.0854 13.5907 25.7383 14.3961 25.7383H24.3961C25.2015 25.7383 25.8544 25.0854 25.8544 24.2799V17.1966C25.8544 16.3912 25.2015 15.7383 24.3961 15.7383ZM23.7711 14.4883V13.8633C23.7711 13.5181 23.4912 13.2383 23.1461 13.2383H13.5627C13.2176 13.2383 12.9377 13.5181 12.9377 13.8633C12.9377 14.2085 13.2176 14.4883 13.5627 14.4883H23.7711Z" fill="white"/>
</svg>
